<svg width="20" height="20" viewBox="0 0 20 20" fill="none" xmlns="http://www.w3.org/2000/svg">
<g clip-path="url(#clip0_17_1294)">
<path d="M9.8574 9.63406C11.1809 9.63406 12.327 9.15936 13.2635 8.22278C14.1999 7.28635 14.6746 6.14057 14.6746 4.81688C14.6746 3.49364 14.1999 2.34771 13.2633 1.41097C12.3267 0.474699 11.1808 0 9.8574 0C8.53371 0 7.38793 0.474699 6.4515 1.41113C5.51507 2.34756 5.04022 3.49349 5.04022 4.81688C5.04022 6.14057 5.51507 7.2865 6.45165 8.22293C7.38824 9.1592 8.53417 9.63406 9.8574 9.63406Z" fill="#314CA3"/>
<path d="M18.2862 15.379C18.2592 14.9893 18.2046 14.5642 18.1242 14.1152C18.043 13.663 17.9385 13.2354 17.8134 12.8447C17.6841 12.4408 17.5083 12.0419 17.291 11.6597C17.0655 11.2629 16.8006 10.9175 16.5034 10.6332C16.1926 10.3358 15.812 10.0967 15.372 9.9223C14.9334 9.74881 14.4474 9.66092 13.9276 9.66092C13.7234 9.66092 13.526 9.74469 13.1446 9.99295C12.91 10.146 12.6355 10.323 12.3291 10.5188C12.0671 10.6857 11.7121 10.8421 11.2738 10.9837C10.8461 11.1221 10.4118 11.1923 9.98318 11.1923C9.55456 11.1923 9.12045 11.1221 8.69229 10.9837C8.25437 10.8422 7.89945 10.6858 7.63776 10.5189C7.33427 10.325 7.05961 10.148 6.82142 9.9928C6.44056 9.74454 6.24296 9.66077 6.0388 9.66077C5.51878 9.66077 5.03295 9.74881 4.59456 9.92245C4.15481 10.0966 3.7741 10.3357 3.46297 10.6334C3.16589 10.9178 2.90084 11.2631 2.67562 11.6597C2.45849 12.0419 2.28271 12.4406 2.15332 12.8448C2.02835 13.2356 1.92383 13.663 1.84265 14.1152C1.76224 14.5635 1.70761 14.9888 1.6806 15.3794C1.65405 15.7621 1.64062 16.1593 1.64062 16.5605C1.64062 17.6045 1.9725 18.4496 2.62695 19.073C3.27331 19.688 4.12856 20.0001 5.1686 20.0001H14.7987C15.8387 20.0001 16.6937 19.6882 17.3402 19.073C17.9948 18.4501 18.3267 17.6048 18.3267 16.5603C18.3265 16.1573 18.3129 15.7598 18.2862 15.379Z" fill="#314CA3"/>
</g>
<defs>
<clipPath id="clip0_17_1294">
<rect width="19.9999" height="20" fill="white"/>
</clipPath>
</defs>
</svg>
