<svg width="20" height="20" viewBox="0 0 20 20" fill="none" xmlns="http://www.w3.org/2000/svg">
<path d="M19.6018 10.2283C19.6026 9.54684 19.545 8.86658 19.4296 8.195H9.99927V12.0463H15.4005C15.29 12.6614 15.0561 13.2477 14.7128 13.77C14.3696 14.2923 13.9241 14.7396 13.4033 15.0851V17.585H16.6269C18.5143 15.8448 19.6018 13.2712 19.6018 10.2283Z" fill="#314CA3"/>
<path d="M9.99931 20C12.6978 20 14.97 19.1139 16.6269 17.5862L13.4034 15.0863C12.5062 15.6946 11.3507 16.0418 9.99931 16.0418C7.39105 16.0418 5.17722 14.2835 4.38557 11.9141H1.06483V14.4905C1.89712 16.1466 3.17335 17.5389 4.75103 18.5118C6.32872 19.4847 8.14576 19.9999 9.99931 20Z" fill="#314CA3"/>
<path d="M4.38554 11.9142C3.96702 10.6726 3.96702 9.32806 4.38554 8.08649V5.51017H1.06479C0.36464 6.9034 0 8.44106 0 10.0003C0 11.5596 0.36464 13.0972 1.06479 14.4905L4.38554 11.9142Z" fill="#314CA3"/>
<path d="M9.99931 3.95888C11.4254 3.93559 12.8033 4.47439 13.8353 5.45884L16.6894 2.60475C14.8796 0.904904 12.482 -0.0283418 9.99931 0.000656076C8.14576 0.000740553 6.32872 0.515996 4.75103 1.4889C3.17335 2.4618 1.89712 3.85406 1.06483 5.51023L4.38557 8.08655C5.17722 5.71717 7.39105 3.95888 9.99931 3.95888Z" fill="#314CA3"/>
</svg>
