<svg width="32" height="32" viewBox="0 0 32 32" fill="none" xmlns="http://www.w3.org/2000/svg">
<path d="M23.0682 16.7918C23.0276 13.5012 25.7495 11.9168 25.8714 11.8356C24.3276 9.60121 21.9307 9.27621 21.1182 9.27621C19.1276 9.07308 17.1776 10.495 16.162 10.495C15.1057 10.495 13.562 9.31683 11.8557 9.35746C9.66199 9.39808 7.63074 10.6575 6.53387 12.6075C4.21824 16.5887 5.96512 22.4793 8.15887 25.7293C9.25574 27.3137 10.5557 29.0606 12.262 29.02C13.9276 28.9387 14.537 27.9637 16.5276 27.9637C18.5182 27.9637 19.087 29.02 20.7932 28.9793C22.5807 28.9387 23.6776 27.395 24.7339 25.8106C25.9932 23.9825 26.5214 22.195 26.562 22.1137C26.5214 22.0325 23.1089 20.7325 23.0682 16.7918Z" fill="#27282E"/>
<path d="M19.8182 7.16375C20.712 6.06687 21.3213 4.52312 21.1588 2.97937C19.8588 3.02 18.2745 3.87312 17.3401 4.97C16.5276 5.945 15.7963 7.48875 15.9588 8.99187C17.4213 9.07312 18.8838 8.26062 19.8182 7.16375Z" fill="#27282E"/>
</svg>
