<svg width="20" height="20" viewBox="0 0 20 20" fill="none" xmlns="http://www.w3.org/2000/svg">
<path d="M12.6633 4.9429H14.6323L14.5984 3.74355H12.934L14.4983 0.510507L12.7285 0.362413L11.1741 1.55394L11.6924 0.206497L9.87829 0L9.28332 1.68379L8.30561 0.380143L5.616 0.286802L7.39569 3.74407L5.78912 3.69244V4.94238H7.33729C4.03551 6.8749 1.65668 11.9263 1.65668 14.6551C1.65668 18.0758 5.3923 20 9.99979 20C14.6073 20 18.3429 18.0758 18.3429 14.6551C18.3434 11.9263 15.9651 6.87542 12.6633 4.9429ZM10.6975 16.2961V17.4803H9.55917V16.3774C8.78117 16.3435 8.02612 16.1329 7.58498 15.8784L7.9333 14.5205C8.42085 14.788 9.10655 15.031 9.86108 15.031C10.5228 15.031 10.9759 14.7755 10.9759 14.3119C10.9759 13.8692 10.6047 13.5902 9.74532 13.3008C8.5022 12.8831 7.65485 12.3017 7.65485 11.1764C7.65485 10.1544 8.37497 9.35235 9.61757 9.10935V8.00594H10.7559V9.028C11.5334 9.06346 12.0569 9.22459 12.4396 9.41075L12.1028 10.7233C11.8009 10.596 11.2664 10.328 10.4305 10.328C9.67545 10.328 9.43141 10.6529 9.43141 10.9777C9.43141 11.3615 9.83814 11.605 10.8252 11.9768C12.2065 12.466 12.7645 13.1032 12.7645 14.1492C12.765 15.1812 12.0329 16.064 10.6975 16.2961Z" fill="#314CA3"/>
</svg>
