<svg width="20" height="20" viewBox="0 0 20 20" fill="none" xmlns="http://www.w3.org/2000/svg">
<g clip-path="url(#clip0_12_266)">
<path d="M16.2398 10.612C15.8673 10.612 15.4991 10.6665 15.1454 10.774L10.5855 12.0363V5.58691C10.5855 5.26383 10.8483 5.00098 11.1714 5.00098C11.4945 5.00098 11.7573 5.26383 11.7573 5.58691V10.145H12.3433C14.6049 10.145 16.4448 8.30508 16.4448 6.04348C16.4448 4.21336 15.2156 2.58957 13.4532 2.09402L5.88495 0V10.0448L2.8482 10.8854C2.4896 10.9751 2.14585 11.1177 1.82636 11.3093C0.0483515 12.3753 -0.530867 14.6892 0.535227 16.4672C0.957453 17.1714 1.58163 17.7068 2.3403 18.0155C2.79257 18.1995 3.27972 18.2929 3.7662 18.2928C4.06827 18.2928 4.37015 18.2568 4.66312 18.1842L5.88495 17.8461V18.8609L9.99952 20L17.3269 17.9716L17.3423 17.9672C18.0956 17.7364 18.7723 17.2608 19.2476 16.6279C19.7395 15.973 19.9995 15.1929 19.9995 14.3718C19.9995 12.2987 18.3129 10.612 16.2398 10.612ZM5.88491 13.3375L2.80351 14.1905L3.11616 15.3199L5.88491 14.5534V16.6302L4.37382 17.0486C4.16624 17.0994 3.95765 17.124 3.75175 17.124C2.85882 17.1239 2.01773 16.6609 1.54027 15.8646C0.806476 14.6407 1.20515 13.048 2.42898 12.3143C2.65101 12.1811 2.8896 12.0824 3.13812 12.0208L5.88491 11.2607V13.3375ZM9.41359 5.58691V18.6218L7.05683 17.9694V1.54016L13.1383 3.22285C14.3952 3.57625 15.273 4.73617 15.273 6.04352C15.273 7.45832 14.2648 8.64211 12.9292 8.91434V5.58691C12.9292 4.61766 12.1407 3.8291 11.1714 3.8291C10.2021 3.8291 9.41359 4.61766 9.41359 5.58691ZM17.0061 16.8445L10.5855 18.6218V16.545L17.196 14.7151L16.8833 13.5857L10.5855 15.3291V13.2523L15.4654 11.9013L15.4807 11.8969C15.7255 11.8219 15.9809 11.7839 16.2398 11.7839C17.6668 11.7839 18.8277 12.9448 18.8277 14.3718C18.8277 15.5145 18.0959 16.5073 17.0061 16.8445Z" fill="#314CA3"/>
</g>
<defs>
<clipPath id="clip0_12_266">
<rect width="20" height="20" fill="white"/>
</clipPath>
</defs>
</svg>
