<svg width="20" height="20" viewBox="0 0 20 20" fill="none" xmlns="http://www.w3.org/2000/svg">
<g clip-path="url(#clip0_12_161)">
<path d="M3.36719 17.2181C3.69079 17.2181 3.95312 16.9557 3.95312 16.6321C3.95312 16.3085 3.69079 16.0462 3.36719 16.0462C3.04358 16.0462 2.78125 16.3085 2.78125 16.6321C2.78125 16.9557 3.04358 17.2181 3.36719 17.2181Z" fill="#314CA3"/>
<path d="M15.8669 9.62928C16.9016 9.47705 17.8405 9.00467 18.582 8.26318C19.2879 7.55732 19.7525 6.66623 19.9256 5.68627C20.0946 4.72908 19.9757 3.75552 19.5818 2.87084C19.4147 2.4956 18.9224 2.40459 18.6322 2.69486L16.2319 5.0951C16.1328 5.19416 15.9716 5.19416 15.8725 5.0951L14.9047 4.12732C14.8058 4.02842 14.8058 3.86748 14.9047 3.76857L17.3053 1.36802C17.5958 1.07755 17.5043 0.585445 17.1293 0.418492C16.2446 0.0245069 15.271 -0.0943993 14.3138 0.0746633C13.3338 0.24771 12.4427 0.71232 11.7368 1.41822C10.9953 2.15966 10.5229 3.09849 10.3707 4.13318C10.245 4.98709 10.3453 5.84142 10.6604 6.63072L8.9027 8.07451L4.97758 4.14955L5.66813 3.45904C5.91559 3.21162 5.89223 2.80295 5.61762 2.58545L2.9609 0.481226C2.72773 0.296577 2.39313 0.315874 2.18277 0.526226L0.525508 2.18341C0.315156 2.39373 0.295781 2.7283 0.480508 2.9615L2.58481 5.6181C2.8023 5.89267 3.2107 5.91635 3.45844 5.66861L4.14895 4.9781L7.99285 8.82186L0.777578 14.7487C-0.183008 15.5084 -0.265899 16.9378 0.599922 17.8036L2.19602 19.3996C3.06172 20.2653 4.49109 20.1827 5.25109 19.222L11.1781 12.007L11.7735 12.6024L10.9171 13.4587C10.697 13.6788 10.6874 14.0326 10.8952 14.2642L15.3602 19.2421C16.2384 20.2167 17.7532 20.2573 18.6817 19.3287L19.3286 18.6819C20.2591 17.7514 20.215 16.2256 19.2315 15.3506C19.2311 15.3503 19.2307 15.3499 19.2303 15.3496L14.2294 10.9246C13.9975 10.7194 13.6459 10.7301 13.4268 10.9491L12.6021 11.7738L11.9254 11.0972L13.3693 9.33955C14.1586 9.65467 15.013 9.7549 15.8669 9.62928ZM3.09496 4.37486L1.72313 2.64299L2.64234 1.7238L4.3743 3.09556L3.09496 4.37486ZM13.8657 12.1674L18.453 16.2264C18.6853 16.4333 18.8182 16.7184 18.8273 17.0294C18.8364 17.3405 18.7202 17.6331 18.5 17.8533L17.8532 18.5001C17.634 18.7192 17.3427 18.8358 17.0331 18.8274C16.7233 18.8194 16.4385 18.6881 16.2318 18.4587L12.1381 13.8949L13.8657 12.1674ZM12.7497 8.24768L10.6814 10.7655C10.6811 10.7658 10.6809 10.7661 10.6806 10.7664L4.34188 18.4827C4.33918 18.486 4.33648 18.4893 4.33383 18.4927C4.00902 18.9063 3.39738 18.9437 3.02465 18.571L1.42855 16.975C1.05668 16.6031 1.09238 15.9914 1.50695 15.6659C1.51031 15.6633 1.51363 15.6606 1.51695 15.6578L9.23355 9.31924C9.23379 9.31904 9.23398 9.31889 9.23422 9.31869L11.7523 7.25029C11.9661 7.07471 12.0279 6.7735 11.9005 6.52791C11.1621 5.10338 11.4293 3.38295 12.5654 2.24681C13.2651 1.54716 14.2123 1.17537 15.1702 1.17537C15.3765 1.17537 15.5834 1.19263 15.7884 1.22759L14.076 2.93994C13.5203 3.49572 13.5203 4.40006 14.0761 4.95588L15.0439 5.92365C15.5998 6.47959 16.5045 6.47967 17.0605 5.92365L18.7726 4.21166C18.9698 5.36799 18.6038 6.5842 17.7534 7.43459C16.6171 8.57068 14.8967 8.83783 13.4721 8.09943C13.2266 7.97209 12.9253 8.03389 12.7497 8.24768Z" fill="#314CA3"/>
</g>
<defs>
<clipPath id="clip0_12_161">
<rect width="20" height="20" fill="white"/>
</clipPath>
</defs>
</svg>
