<svg width="20" height="20" viewBox="0 0 20 20" fill="none" xmlns="http://www.w3.org/2000/svg">
<path d="M11.7918 9.89557C14.52 9.89557 16.7392 7.67598 16.7392 4.94778C16.7392 2.21959 14.52 0 11.7918 0C9.06356 0 6.84397 2.21959 6.84397 4.94778C6.84397 7.67598 9.06356 9.89557 11.7918 9.89557ZM11.2058 2.03951V1.90513C11.2058 1.58129 11.4679 1.31917 11.7918 1.31917C12.1152 1.31917 12.3777 1.58129 12.3777 1.90513V2.04029C13.075 2.1899 13.5996 2.81101 13.5996 3.55244C13.5996 3.87588 13.3371 4.13839 13.0137 4.13839C12.6898 4.13839 12.4277 3.87588 12.4277 3.55244C12.4277 3.34579 12.2593 3.17743 12.0527 3.17743H11.5273C11.3207 3.17743 11.1523 3.34579 11.1523 3.55244C11.1523 3.6708 11.2089 3.7833 11.3042 3.85362L11.7918 4.21456L12.9762 5.09115C13.3652 5.37905 13.5996 5.8396 13.6027 6.32399V6.32946C13.6055 6.74275 13.4473 7.13261 13.1566 7.42676C12.941 7.64512 12.6715 7.79161 12.3777 7.85333V7.99044C12.3777 8.31428 12.1152 8.57639 11.7918 8.57639C11.4679 8.57639 11.2058 8.31428 11.2058 7.99044V7.85528C10.9199 7.79434 10.657 7.65371 10.4445 7.44355C10.1503 7.15331 9.98702 6.7658 9.98468 6.35251C9.98273 6.02906 10.2433 5.76499 10.5667 5.76304H10.5706C10.8925 5.76304 11.1546 6.0232 11.1566 6.34548C11.1574 6.54771 11.3201 6.71814 11.5335 6.71814C11.8573 6.71619 11.7367 6.71689 12.0582 6.71502C12.2661 6.71338 12.4324 6.54458 12.4308 6.33727V6.3318C12.4301 6.21461 12.3734 6.10289 12.2789 6.03297L11.7918 5.67241L10.607 4.79583C10.2148 4.50519 9.98038 4.04034 9.98038 3.55244C9.98038 2.80945 10.5066 2.18795 11.2058 2.03951Z" fill="#314CA3"/>
<path d="M3.77509 12.7105C3.62489 12.4501 3.29125 12.3595 3.02925 12.5106L0.273008 14.1017C0.0120243 14.2528 -0.0775093 14.5866 0.0731587 14.8479L2.89018 19.727C3.04097 19.9879 3.37457 20.0775 3.63602 19.9268L6.39227 18.3354C6.65364 18.1847 6.74282 17.8509 6.59212 17.5896L3.77509 12.7105Z" fill="#314CA3"/>
<path d="M19.5681 11.7367C19.3029 11.3684 18.7896 11.2852 18.4216 11.5504C17.3052 12.3547 15.1614 13.8993 14.9911 14.0224C14.9125 14.0892 14.8301 14.1497 14.7442 14.2032C14.4071 14.4153 14.016 14.5286 13.6078 14.5286H10.8011C10.4777 14.5286 10.2152 14.2665 10.2152 13.9427C10.2152 13.6184 10.4781 13.3567 10.8011 13.3567H13.8027C14.2438 13.3567 14.5969 12.9895 14.5785 12.5477C14.5614 12.1286 14.2035 11.8035 13.784 11.8035H11.4992C11.3445 11.6399 11.1749 11.4899 10.9933 11.3559C10.3687 10.8953 9.59678 10.623 8.76121 10.623C7.27562 10.623 5.79746 11.559 5.18455 12.8083L7.58149 16.9595H12.0777C12.9605 16.9595 13.8301 16.7337 14.5953 16.2935C14.8606 16.1412 15.1446 15.9579 15.4524 15.7368C16.7423 14.8103 19.3795 12.8852 19.3814 12.884C19.7502 12.6192 19.8338 12.1051 19.5681 11.7367Z" fill="#314CA3"/>
</svg>
