<svg width="19" height="19" viewBox="0 0 19 19" fill="none" xmlns="http://www.w3.org/2000/svg">
<g clip-path="url(#clip0_17_1454)">
<path d="M18.477 5.27387L16.7663 6.98462C16.5919 7.15903 16.3098 7.15903 16.1354 6.98462L12.0163 2.86547C11.8419 2.69106 11.8419 2.40903 12.0163 2.23461L13.727 0.523867C14.421 -0.170079 15.5491 -0.170079 16.2467 0.523867L18.477 2.75414C19.1747 3.44809 19.1747 4.57622 18.477 5.27387ZM10.5467 3.70414L0.801809 13.4491L0.01509 17.9579C-0.0925273 18.5665 0.438137 19.0934 1.04673 18.9895L5.55552 18.1991L15.3005 8.45415C15.4749 8.27973 15.4749 7.9977 15.3005 7.82329L11.1813 3.70414C11.0032 3.52973 10.7212 3.52973 10.5467 3.70414ZM4.60552 12.6141C4.40142 12.41 4.40142 12.0834 4.60552 11.8793L10.3204 6.1645C10.5245 5.9604 10.851 5.9604 11.0551 6.1645C11.2592 6.3686 11.2592 6.69516 11.0551 6.89926L5.34029 12.6141C5.13619 12.8182 4.80962 12.8182 4.60552 12.6141ZM3.26587 15.735H5.04712V17.0821L2.65357 17.5014L1.49947 16.3473L1.9188 13.9538H3.26587V15.735Z" fill="white"/>
</g>
<defs>
<clipPath id="clip0_17_1454">
<rect width="18.5455" height="18.5455" fill="white" transform="scale(1.02451)"/>
</clipPath>
</defs>
</svg>
