<svg width="20" height="20" viewBox="0 0 20 20" fill="none" xmlns="http://www.w3.org/2000/svg">
<g clip-path="url(#clip0_17_881)">
<path d="M19.9846 3.48279C19.8995 2.51607 18.7259 2.08564 18.039 2.77268L17.0578 3.75389C16.8384 3.97326 16.4782 3.97686 16.2548 3.76186C16.0231 3.53877 16.0351 3.15443 16.2629 2.92662L17.228 1.96154C17.9143 1.27525 17.4857 0.101269 16.5182 0.0160735C13.8885 -0.215137 11.8028 2.23045 12.5002 4.82373L0.554687 16.7692C-0.185 17.5089 -0.185117 18.7062 0.554687 19.446C1.2927 20.1839 2.49344 20.184 3.23144 19.446L15.1738 7.50354C17.7361 8.20025 20.2182 6.13639 19.9846 3.48279Z" fill="#314CA3"/>
<path d="M1.24968 4.58819C1.27769 4.64342 1.31425 4.69389 1.35804 4.73768L3.05367 6.43327C3.28249 6.6621 3.65347 6.66206 3.88226 6.43327L4.74456 5.57096L6.39136 7.21776L4.63077 8.97831C4.17456 9.43534 4.17495 10.1787 4.63117 10.6353L4.81593 10.82L10.825 4.81132L10.6403 4.62655C10.1817 4.16878 9.44175 4.16811 8.98253 4.62655L7.21995 6.38913L5.57316 4.74233L6.43546 3.88003C6.66429 3.65124 6.66429 3.28022 6.43546 3.05143L4.73988 1.35581C4.69562 1.31151 4.64452 1.27464 4.58859 1.24655L2.42132 0.1578C2.19554 0.0443624 1.92265 0.0883859 1.74398 0.267058L0.263118 1.74788C0.0839778 1.92702 0.0402668 2.20096 0.154759 2.42698L1.24968 4.58819Z" fill="#314CA3"/>
<path d="M14.2549 10.0799L10.084 14.2508L14.874 19.042C16.0263 20.1943 17.8918 20.1946 19.0445 19.042C20.1945 17.892 20.1945 16.021 19.0445 14.8715L14.2549 10.0799ZM17.6872 17.6835C17.4598 17.9116 17.0879 17.9126 16.8587 17.6835L13.533 14.3578C13.3041 14.1289 13.3041 13.7579 13.533 13.5293C13.762 13.3004 14.133 13.3004 14.3615 13.5293L17.6872 16.855C17.916 17.0839 17.916 17.4545 17.6872 17.6835Z" fill="#314CA3"/>
</g>
<defs>
<clipPath id="clip0_17_881">
<rect width="20" height="20" fill="white"/>
</clipPath>
</defs>
</svg>
