<svg width="20" height="20" viewBox="0 0 20 20" fill="none" xmlns="http://www.w3.org/2000/svg">
<path d="M9.99999 8.12786C10.3543 8.12786 10.6437 8.41651 10.6437 8.77086C10.6437 9.0942 10.9065 9.35627 11.2299 9.35627C11.5525 9.35627 11.8153 9.0942 11.8153 8.77086C11.8153 7.97653 11.2978 7.30622 10.5854 7.06113V6.72893C10.5854 6.40632 10.3233 6.14278 9.99999 6.14278C9.67591 6.14278 9.41384 6.40632 9.41384 6.72893V7.06113C8.70145 7.30622 8.18543 7.97653 8.18543 8.77086C8.18543 9.77263 8.99896 10.5862 9.99999 10.5862C10.3543 10.5862 10.6437 10.8755 10.6437 11.2299C10.6437 11.585 10.3543 11.8736 9.99999 11.8736C9.64565 11.8736 9.357 11.585 9.357 11.2299C9.357 10.9065 9.09419 10.6437 8.77085 10.6437C8.44677 10.6437 8.18543 10.9065 8.18543 11.2299C8.18543 12.0242 8.70145 12.6938 9.41384 12.9389V13.2711C9.41384 13.5952 9.67591 13.858 9.99999 13.858C10.3233 13.858 10.5854 13.5952 10.5854 13.2711V12.9389C11.2978 12.6938 11.8153 12.0242 11.8153 11.2299C11.8153 10.2289 11.001 9.41459 9.99999 9.41459C9.64565 9.41459 9.357 9.12594 9.357 8.77086C9.357 8.41651 9.64565 8.12786 9.99999 8.12786ZM14.9085 13.2534C15.1956 13.4047 15.5492 13.2947 15.6998 13.0097C16.1871 12.0892 16.444 11.0483 16.444 10C16.444 6.44766 13.5523 3.55677 9.99999 3.55677C6.44691 3.55677 3.55602 6.44766 3.55602 10C3.55602 13.5531 6.44691 16.444 9.99999 16.444C11.0328 16.444 12.0589 16.1945 12.9677 15.7212C13.2548 15.5729 13.3663 15.2178 13.2172 14.9313C13.0681 14.6457 12.7144 14.532 12.4265 14.6818C11.6743 15.0746 10.8571 15.2731 9.99999 15.2731C7.09286 15.2731 4.72685 12.9079 4.72685 10C4.72685 7.09361 7.09286 4.7276 9.99999 4.7276C12.9071 4.7276 15.2731 7.09361 15.2731 10C15.2731 10.8586 15.062 11.7097 14.6648 12.4612C14.5128 12.7477 14.622 13.102 14.9085 13.2534ZM9.99999 1.21217C8.30281 1.21217 6.65509 1.69792 5.23549 2.61554C4.96308 2.79123 4.88557 3.1537 5.06127 3.42537C5.2377 3.69704 5.59869 3.77381 5.87184 3.59959C7.10024 2.80526 8.52945 2.38447 9.99999 2.38447C14.1998 2.38447 17.6155 5.80098 17.6155 10C17.6155 14.1998 14.1998 17.6163 9.99999 17.6163C5.80023 17.6163 2.38372 14.1998 2.38372 10C2.38372 8.54349 2.79639 7.12683 3.57817 5.90507C3.75239 5.63192 3.67266 5.26946 3.39952 5.09523C3.12711 4.92101 2.76465 5.00074 2.59116 5.27315C1.68905 6.6839 1.21216 8.3198 1.21216 10C1.21216 14.8465 5.15354 18.7878 9.99999 18.7878C14.8457 18.7878 18.7878 14.8465 18.7878 10C18.7878 5.15503 14.8457 1.21217 9.99999 1.21217Z" fill="#314CA3"/>
</svg>
