<svg width="20" height="20" viewBox="0 0 20 20" fill="none" xmlns="http://www.w3.org/2000/svg">
<g clip-path="url(#clip0_12_149)">
<path d="M18.7938 10.4424C18.4726 10.4039 18.181 10.6334 18.1426 10.9548C17.661 14.9894 14.2248 18.0321 10.1497 18.0321C6.48442 18.0321 3.33673 15.5708 2.38994 12.1403L3.09092 12.5253C3.37457 12.6811 3.73086 12.5774 3.8865 12.2938C4.04229 12.0102 3.93868 11.6539 3.65503 11.4981L1.85696 10.5106C1.57361 10.3549 1.21762 10.4582 1.06168 10.7414L0.0727752 12.5372C-0.0833198 12.8207 0.0199806 13.177 0.303332 13.3331C0.595991 13.47 0.930459 13.4027 1.09922 13.1026L1.3284 12.6865C2.48943 16.495 6.0349 19.204 10.1497 19.204C14.8179 19.204 18.7543 15.7173 19.306 11.0936C19.3445 10.7723 19.115 10.4807 18.7938 10.4424Z" fill="#314CA3"/>
<path d="M19.6455 5.78496C19.3486 5.65694 19.0037 5.79381 18.8755 6.09104L18.6909 6.51889C18.114 5.10824 17.1881 3.8459 15.9955 2.86859C14.3535 1.52263 12.2774 0.781525 10.1496 0.781525C8.02183 0.781525 5.94575 1.52263 4.30362 2.86859C2.68423 4.19578 1.55571 6.04817 1.12603 8.08427C1.05919 8.40088 1.26183 8.7117 1.57844 8.77853C1.8946 8.84537 2.20587 8.64289 2.27255 8.32627C2.64746 6.55002 3.63255 4.93368 5.04641 3.7748C6.47949 2.60019 8.2919 1.95338 10.1496 1.95338C12.0072 1.95338 13.8196 2.60019 15.2527 3.7748C16.3542 4.67749 17.1953 5.85805 17.6906 7.17547L16.9487 6.85641C16.6515 6.7287 16.3068 6.86587 16.1789 7.16311C16.051 7.46035 16.1884 7.80489 16.4856 7.93275L18.3703 8.74344C18.6911 8.87604 19.0034 8.74054 19.14 8.4372L19.9516 6.5549C20.0797 6.25782 19.9427 5.91313 19.6455 5.78496Z" fill="#314CA3"/>
<path d="M13.7609 5.68228C13.9291 5.34308 13.9549 4.95857 13.8339 4.59984C13.7129 4.24111 13.4594 3.95105 13.1202 3.7829C12.4199 3.43592 11.568 3.72339 11.2208 4.4236C11.145 4.5768 11.0983 4.73915 11.0809 4.90425C10.6283 4.86259 10.1683 4.90471 9.72245 5.03303C8.83501 5.28815 8.08017 5.86218 7.59709 6.64906L6.01493 9.22593C5.8036 9.18809 5.58509 9.2038 5.37605 9.2743C5.04906 9.38462 4.78463 9.61563 4.63159 9.92462L4.52722 10.135C4.21106 10.7731 4.4729 11.5497 5.11116 11.8658L8.5361 13.5629C8.19888 14.2645 8.34994 15.0529 9.22517 15.4932C9.99252 15.8085 10.8467 15.4996 11.1784 14.8722L11.5405 15.0515C11.7215 15.1412 11.9165 15.1865 12.1127 15.1865C12.2517 15.1865 12.3913 15.1638 12.5268 15.118C12.8537 15.0079 13.1181 14.7768 13.2713 14.4677L13.3755 14.2573C13.5287 13.9481 13.5523 13.598 13.442 13.271C13.3715 13.0619 13.2516 12.8785 13.0935 12.7333L14.1854 9.91363C14.5188 9.05244 14.5182 8.10412 14.1837 7.24354C14.0157 6.81111 13.7705 6.41957 13.4634 6.08465C13.5841 5.97082 13.6851 5.83548 13.7609 5.68228ZM12.4899 4.80522C12.6258 4.80522 12.736 4.91539 12.736 5.05119C12.736 5.18714 12.6258 5.29716 12.4899 5.29716C12.3541 5.29716 12.2439 5.18699 12.2439 5.05119C12.2439 4.91539 12.3541 4.80522 12.4899 4.80522ZM9.97757 14.4589C9.90067 14.4849 9.81827 14.4793 9.74549 14.4433C9.67271 14.4073 9.61839 14.345 9.59245 14.2681C9.57215 14.208 9.57139 14.1444 9.58924 14.0849L10.1254 14.3505C10.0887 14.4007 10.0377 14.4387 9.97757 14.4589ZM13.0926 9.49051L11.9032 12.5618C11.7358 12.9412 11.8959 13.3904 12.2711 13.5766H12.2712C12.3324 13.6093 12.3549 13.6764 12.3256 13.7371L12.2212 13.9475C12.1862 14.0086 12.124 14.0286 12.0608 14.0016L5.63148 10.8159C5.57228 10.7866 5.54786 10.7146 5.57716 10.6555L5.68153 10.4451C5.70976 10.3931 5.76453 10.3561 5.84205 10.3909C6.02896 10.4835 6.24075 10.4977 6.4385 10.4312C6.62512 10.3682 6.77816 10.2402 6.87261 10.0688L8.5956 7.2623C8.92534 6.7252 9.44062 6.33336 10.0464 6.15911C10.652 5.98486 11.2967 6.04299 11.8612 6.32284C11.8614 6.32284 11.8614 6.32284 11.8615 6.32299C11.8617 6.32299 11.8617 6.32299 11.8618 6.32314C12.4266 6.60298 12.8633 7.08058 13.0915 7.66803C13.3198 8.25548 13.3201 8.90275 13.0926 9.49051Z" fill="#314CA3"/>
</g>
<defs>
<clipPath id="clip0_12_149">
<rect width="20" height="20" fill="white"/>
</clipPath>
</defs>
</svg>
