<svg width="257" height="162" viewBox="0 0 257 162" fill="none" xmlns="http://www.w3.org/2000/svg">
<path d="M1.39706 160.594H256.546" stroke="#F3F3F5" stroke-dasharray="4 4"/>
<path d="M1.39706 120.57H256.546" stroke="#F3F3F5" stroke-dasharray="4 4"/>
<path d="M1.39706 80.5471H256.546" stroke="#F3F3F5" stroke-dasharray="4 4"/>
<path d="M1.39706 40.5239H256.546" stroke="#F3F3F5" stroke-dasharray="4 4"/>
<path d="M1.39706 0.500292H256.546" stroke="#F3F3F5" stroke-dasharray="4 4"/>
<path d="M1.39706 0.500353V160.594" stroke="#F3F3F5" stroke-dasharray="4 4"/>
<path d="M37.8468 0.500292V160.594" stroke="#F3F3F5" stroke-dasharray="4 4"/>
<path d="M74.2966 0.500292V160.594" stroke="#F3F3F5" stroke-dasharray="4 4"/>
<path d="M110.746 0.500292V160.594" stroke="#F3F3F5" stroke-dasharray="4 4"/>
<path d="M147.196 0.500292V160.594" stroke="#F3F3F5" stroke-dasharray="4 4"/>
<path d="M183.646 0.500292V160.594" stroke="#F3F3F5" stroke-dasharray="4 4"/>
<path d="M220.096 0.500292V160.594" stroke="#F3F3F5" stroke-dasharray="4 4"/>
<path d="M256.5 0.500292V160.594" stroke="#F3F3F5"/>
<path d="M18.9859 101.671C10.3028 108.334 6.74049 129.71 1.39706 143.313V161.594H256.546V49.2034C254.32 49.2034 245.859 36.2946 238.067 42.1244C230.274 47.9541 228.048 116.246 214.689 118.744C201.331 121.243 195.097 51.7019 178.844 54.2003C162.591 56.6987 166.598 121.029 151.459 123.325C136.319 125.621 123.628 10.0607 110.27 14.6412C96.911 19.2216 96.4657 70.8568 88.8958 78.7687C81.3259 86.6805 74.424 67.5255 66.6315 71.2732C58.839 75.0209 55.722 116.246 47.7068 117.911C39.6917 119.577 27.6689 95.0087 18.9859 101.671Z" fill="url(#paint0_linear_11_1413)" fill-opacity="0.5"/>
<path d="M1.39706 143.313C6.74049 129.71 10.3028 108.334 18.9859 101.671C27.669 95.0087 39.6917 119.577 47.7068 117.911C55.722 116.246 58.839 75.021 66.6315 71.2732C74.424 67.5255 81.326 86.6805 88.8958 78.7687C96.4657 70.8568 96.911 19.2216 110.27 14.6412C123.628 10.0607 136.319 125.621 151.459 123.325C166.598 121.029 162.591 56.6988 178.844 54.2003C195.097 51.7019 201.331 121.243 214.689 118.744C228.048 116.246 230.274 47.9541 238.067 42.1244C245.859 36.2946 254.32 49.2034 256.546 49.2034" stroke="#314CA3" stroke-width="3"/>
<defs>
<linearGradient id="paint0_linear_11_1413" x1="128.972" y1="14.5085" x2="128.972" y2="161.594" gradientUnits="userSpaceOnUse">
<stop stop-color="#314CA3" stop-opacity="0.5"/>
<stop offset="1" stop-color="#314CA3" stop-opacity="0"/>
</linearGradient>
</defs>
</svg>
