<svg width="19" height="20" viewBox="0 0 19 20" fill="none" xmlns="http://www.w3.org/2000/svg">
<path d="M8.90625 20H7.34375C6.56832 20 5.9375 19.3692 5.9375 18.5938V8.90625C5.9375 8.13082 6.56832 7.5 7.34375 7.5H8.90625C9.68168 7.5 10.3125 8.13082 10.3125 8.90625V18.5938C10.3125 19.3692 9.68164 20 8.90625 20Z" fill="#314CA3"/>
<path d="M2.96875 20H1.40625C0.630821 20 0 19.3692 0 18.5938V12.0312C0 11.2558 0.630821 10.625 1.40625 10.625H2.96875C3.74418 10.625 4.37501 11.2558 4.37501 12.0312V18.5938C4.37501 19.3692 3.74415 20 2.96875 20Z" fill="#314CA3"/>
<path d="M14.8439 20H13.2814C12.506 20 11.8752 19.3692 11.8752 18.5938V5.625H11.0166C10.6152 5.625 10.2616 5.39844 10.0938 5.03375C9.92611 4.66906 9.98419 4.2532 10.2454 3.9484C10.2484 3.94492 10.2515 3.94145 10.2545 3.93805L13.5972 0.207891C13.7158 0.0755859 13.885 0 14.0627 0C14.2403 0 14.4096 0.0755859 14.5281 0.207891L17.8708 3.93805C17.8739 3.94145 17.8769 3.94492 17.8799 3.9484C18.1412 4.25316 18.1992 4.66906 18.0315 5.03375C17.8638 5.39844 17.5102 5.625 17.1088 5.625H16.2502V18.5938C16.2502 19.3692 15.6193 20 14.8439 20Z" fill="#314CA3"/>
</svg>
