<svg width="201" height="192" viewBox="0 0 201 192" fill="none" xmlns="http://www.w3.org/2000/svg">
<path d="M8.43599 106.248C8.21074 129.697 17.5134 151.028 32.7401 166.547C47.9669 182.067 69.1063 191.775 92.5545 192L93.3654 107.071L8.43599 106.248Z" fill="#8E9ED6"/>
<path d="M41.8399 106.564C41.7048 120.8 47.3472 133.741 56.5936 143.156C65.8287 152.571 78.6565 158.461 92.8922 158.597L93.3877 107.06L41.8399 106.564Z" fill="#7C8FCF"/>
<path d="M27.9757 40.409C10.9132 57.1449 0.247772 80.3904 0 106.17L93.3762 107.06L94.2659 13.6835C68.4751 13.4357 45.0382 23.6732 27.9757 40.409Z" fill="#C6CFEB"/>
<path d="M57.2809 70.2657C47.8656 79.5008 41.9754 92.3286 41.8402 106.564L93.3768 107.06L93.8723 55.5233C79.6367 55.3881 66.6962 61.0305 57.2809 70.2657Z" fill="#B3BFE5"/>
<path d="M169.803 32.0752C150.612 12.5125 123.965 0.281559 94.3904 0L93.3656 107.06L200.425 108.085C200.718 78.5099 188.994 51.6266 169.803 32.0752Z" fill="#314CA3"/>
<path d="M130.16 70.964C120.925 61.5487 108.097 55.6585 93.8611 55.5233L93.3656 107.06L144.902 107.555C145.048 93.3198 139.406 80.3793 130.16 70.964Z" fill="#273972"/>
<path d="M93.3763 107.06L92.6442 183.419C113.727 183.622 132.896 175.254 146.85 161.57C160.804 147.886 169.532 128.875 169.724 107.792L93.3763 107.06Z" fill="#425EBD"/>
<path d="M93.3765 107.06L92.881 158.597C107.117 158.732 120.057 153.089 129.472 143.854C138.888 134.619 144.778 121.791 144.913 107.556L93.3765 107.06Z" fill="#3B55AA"/>
<path d="M119.742 81.1897C113.119 74.4436 103.929 70.2202 93.7256 70.1189C83.5219 70.0175 74.253 74.0719 67.5069 80.6829C60.7607 87.3052 56.5373 96.4953 56.436 106.699C56.3346 116.903 60.3891 126.172 67.0001 132.918C73.6223 139.664 82.8124 143.887 93.0161 143.989C103.22 144.09 112.489 140.036 119.235 133.425C125.981 126.802 130.204 117.612 130.306 107.409C130.407 97.2048 126.364 87.9359 119.742 81.1897Z" fill="white"/>
</svg>
