<svg width="20" height="20" viewBox="0 0 20 20" fill="none" xmlns="http://www.w3.org/2000/svg">
<g clip-path="url(#clip0_17_254)">
<path d="M17.6621 5.51031V5.23672C17.6621 3.97902 16.6389 2.95578 15.3812 2.95578H2.28094C1.0232 2.95582 0 3.97902 0 5.23672V5.51031H17.6621Z" fill="#314CA3"/>
<path d="M10.4347 12.8475C10.4347 11.6643 10.8152 10.5398 11.5178 9.61296H0V12.7947C0 14.0524 1.0232 15.0756 2.28094 15.0756H10.9162C10.601 14.3851 10.4347 13.6292 10.4347 12.8475ZM8.83109 12.1562H6.8625V10.9843H8.83109V12.1562ZM2.62727 10.9843H5.69062V12.1562H2.62727V10.9843Z" fill="#314CA3"/>
<path d="M12.7344 8.44109C13.6281 7.81581 14.6898 7.47894 15.8033 7.47894C16.4478 7.47894 17.0748 7.5921 17.6621 7.80839V6.68222H0V8.44109H12.7344Z" fill="#314CA3"/>
<path d="M20 12.8475C20 10.5297 18.1211 8.6508 15.8033 8.6508C13.4855 8.6508 11.6066 10.5297 11.6066 12.8475C11.6066 15.1653 13.4855 17.0442 15.8033 17.0442C18.1211 17.0442 20 15.1653 20 12.8475ZM16.369 15.0895V15.5664H15.7831V15.5664V15.5664H15.1971V15.093C14.8429 14.973 14.553 14.762 14.27 14.555L14.9618 13.6091C15.3421 13.8872 15.5367 14.0209 15.8033 14.0209C15.9541 14.0209 16.0762 13.9491 16.1219 13.8336C16.1773 13.6938 16.0991 13.5649 15.9124 13.489C15.9124 13.489 15.0749 13.2096 14.6877 12.8148C14.3628 12.4837 14.2594 12.0169 14.3628 11.5728C14.467 11.1258 14.7689 10.7762 15.1971 10.6016V10.1285H16.369V10.582C16.6666 10.6647 16.9185 10.7868 17.0634 10.8655L16.5043 11.8953C16.1336 11.6941 15.7926 11.6337 15.6598 11.6791C15.531 11.7231 15.5115 11.8071 15.5041 11.8387C15.4937 11.8835 15.4881 11.9523 15.5597 12.0321C15.6287 12.109 16.3543 12.4036 16.3543 12.4036C17.1371 12.7223 17.5056 13.5227 17.2114 14.2653C17.0585 14.6513 16.7509 14.9436 16.369 15.0895Z" fill="#314CA3"/>
</g>
<defs>
<clipPath id="clip0_17_254">
<rect width="20" height="20" fill="white"/>
</clipPath>
</defs>
</svg>
