<svg width="20" height="20" viewBox="0 0 20 20" fill="none" xmlns="http://www.w3.org/2000/svg">
<g clip-path="url(#clip0_17_1217)">
<path d="M18.2113 2.72841C15.6138 2.72841 13.6258 2.07743 12.4155 1.53132C11.0998 0.937663 10.3903 0.335245 10.3844 0.330201L10.0011 0L9.61722 0.329224C9.61022 0.335245 8.90067 0.937702 7.58499 1.53132C6.37468 2.07743 4.38667 2.72841 1.7892 2.72841H1.2027V10.7793L10.0002 20L18.7978 10.7874V2.72841H18.2113ZM16.4518 8.20503C16.4518 9.11454 16.0984 9.9697 15.4565 10.6137L10.0002 16.2817L4.54401 10.6137C3.9021 9.96966 3.54871 9.1145 3.54871 8.20499V7.90008C3.54871 6.01862 5.07941 4.48788 6.96091 4.48788C7.80528 4.48788 8.61594 4.79897 9.24354 5.36381L9.97898 6.0257L10.5174 5.48729C11.1619 4.8428 12.0188 4.48785 12.9302 4.48785H13.0395C14.9211 4.48785 16.4517 6.01854 16.4517 7.90004V8.20503H16.4518Z" fill="#314CA3"/>
<path d="M13.0397 5.6609H12.9303C12.3322 5.6609 11.7699 5.89382 11.3469 6.31672L10.0216 7.64207L8.45896 6.23567C8.04708 5.865 7.51512 5.66086 6.96099 5.66086C5.72629 5.66086 4.7218 6.66534 4.7218 7.90005V8.20495C4.7218 8.80307 4.95472 9.36541 5.37763 9.78832L5.38545 9.79625L10.0003 14.5902L14.623 9.78828C15.0459 9.36537 15.2788 8.80303 15.2788 8.20491V7.90001C15.2789 6.66542 14.2743 5.6609 13.0397 5.6609ZM11.7598 10.9394H10.5868V12.1124H9.41383V10.9394H8.24082V9.76642H9.41383V8.59341H10.5868V9.76642H11.7598V10.9394Z" fill="#314CA3"/>
</g>
<defs>
<clipPath id="clip0_17_1217">
<rect width="20" height="20" fill="white"/>
</clipPath>
</defs>
</svg>
