<svg width="24" height="24" viewBox="0 0 24 24" fill="none" xmlns="http://www.w3.org/2000/svg">
<path fill-rule="evenodd" clip-rule="evenodd" d="M21 18C21 18.5523 20.4801 19 19.8387 19L4.16129 19C3.51993 19 3 18.5523 3 18C3 17.4477 3.51993 17 4.16129 17L19.8387 17C20.4801 17 21 17.4477 21 18Z" fill="#182651"/>
<path fill-rule="evenodd" clip-rule="evenodd" d="M21 12C21 12.5523 20.5523 13 20 13L4 13C3.44772 13 3 12.5523 3 12C3 11.4477 3.44772 11 4 11L20 11C20.5523 11 21 11.4477 21 12Z" fill="#182651"/>
<path fill-rule="evenodd" clip-rule="evenodd" d="M21 6C21 6.55228 20.4801 7 19.8387 7L4.16129 7C3.51993 7 3 6.55229 3 6C3 5.44772 3.51993 5 4.16129 5L19.8387 5C20.4801 5 21 5.44771 21 6Z" fill="#182651"/>
</svg>
