<svg width="20" height="20" viewBox="0 0 20 20" fill="none" xmlns="http://www.w3.org/2000/svg">
<g clip-path="url(#clip0_17_1241)">
<path d="M17.6553 13.3559C17.1178 14.8128 16.3048 16.0796 15.2387 17.1207C14.0251 18.3057 12.4361 19.2473 10.5156 19.919C10.4526 19.941 10.3868 19.959 10.3207 19.9723C10.2335 19.9895 10.1447 19.9988 10.0566 20H10.0394C9.94553 20 9.85123 19.9906 9.75769 19.9723C9.69162 19.959 9.62677 19.941 9.56406 19.9195C7.6413 19.2488 6.05026 18.3077 4.83551 17.1227C3.76892 16.0816 2.95608 14.8156 2.41928 13.3586C1.44317 10.7097 1.49871 7.79162 1.54342 5.44665L1.54418 5.41064C1.55319 5.217 1.55898 5.0136 1.56219 4.78899C1.57852 3.68624 2.45529 2.77392 3.55819 2.71242C5.85769 2.5841 7.63657 1.83413 9.1565 0.352651L9.16977 0.340444C9.42215 0.108968 9.74014 -0.00455782 10.0566 0.000172428C10.3618 0.00413973 10.6657 0.117513 10.9091 0.340444L10.9221 0.352651C12.4423 1.83413 14.2212 2.5841 16.5207 2.71242C17.6236 2.77392 18.5004 3.68624 18.5167 4.78899C18.5199 5.01513 18.5257 5.21822 18.5347 5.41064L18.5352 5.4259C18.5797 7.77529 18.635 10.6992 17.6553 13.3559Z" fill="#314CA3"/>
<path d="M17.6554 13.3559C17.1178 14.8128 16.3048 16.0796 15.2387 17.1207C14.0251 18.3057 12.4361 19.2473 10.5156 19.919C10.4526 19.941 10.3868 19.959 10.3208 19.9722C10.2335 19.9895 10.1447 19.9988 10.0566 20V0.000152588C10.3618 0.00411989 10.6658 0.117493 10.9091 0.340424L10.9221 0.352631C12.4424 1.83411 14.2212 2.58408 16.5207 2.7124C17.6236 2.7739 18.5004 3.68622 18.5167 4.78897C18.5199 5.01511 18.5257 5.2182 18.5347 5.41062L18.5352 5.42588C18.5797 7.77527 18.635 10.6992 17.6554 13.3559Z" fill="#314CA3"/>
<path d="M15.0236 10C15.0236 12.7425 12.7969 14.9748 10.0567 14.9846H10.0392C7.29089 14.9846 5.05457 12.7484 5.05457 10C5.05457 7.25174 7.29089 5.01556 10.0392 5.01556H10.0567C12.7969 5.02533 15.0236 7.25769 15.0236 10Z" fill="white"/>
<path d="M13.1016 9.19753L10.0764 11.8814L9.42264 12.4613C9.26821 12.5983 9.06566 12.6667 8.86332 12.6667C8.66077 12.6667 8.45842 12.5983 8.30378 12.4613L6.89827 11.214C6.58941 10.94 6.58941 10.4962 6.89827 10.2221C7.20672 9.94812 7.70765 9.94812 8.01651 10.2221L8.86332 10.9732L11.9834 8.20561C12.2923 7.93146 12.7932 7.93146 13.1016 8.20561C13.4105 8.47959 13.4105 8.92392 13.1016 9.19753Z" fill="#314CA3"/>
</g>
<defs>
<clipPath id="clip0_17_1241">
<rect width="20" height="20" fill="white"/>
</clipPath>
</defs>
</svg>
