<svg width="25" height="25" viewBox="0 0 25 25" fill="none" xmlns="http://www.w3.org/2000/svg">
<g clip-path="url(#clip0_205_41)">
<path d="M22.0777 6.8879V6.54591C22.0777 4.97379 20.7987 3.69473 19.2265 3.69473H2.85117C1.279 3.69478 0 4.97379 0 6.54591V6.8879H22.0777Z" fill="#888EA2"/>
<path d="M13.0434 16.0594C13.0434 14.5804 13.519 13.1747 14.3972 12.0162H0V15.9934C0 17.5655 1.279 18.8445 2.85117 18.8445H13.6453C13.2513 17.9814 13.0434 17.0365 13.0434 16.0594ZM11.0389 15.1952H8.57812V13.7304H11.0389V15.1952ZM3.28408 13.7304H7.11328V15.1952H3.28408V13.7304Z" fill="#888EA2"/>
<path d="M15.918 10.5514C17.0351 9.76981 18.3622 9.34871 19.7541 9.34871C20.5598 9.34871 21.3436 9.49017 22.0777 9.76053V8.35281H0V10.5514H15.918Z" fill="#888EA2"/>
<path d="M25.0001 16.0594C25.0001 13.1622 22.6514 10.8135 19.7542 10.8135C16.857 10.8135 14.5083 13.1622 14.5083 16.0594C14.5083 18.9566 16.8569 21.3052 19.7542 21.3052C22.6514 21.3052 25.0001 18.9566 25.0001 16.0594ZM20.4613 18.8619V19.458H19.7289V19.4581V19.458H18.9965V18.8663C18.5537 18.7163 18.1914 18.4525 17.8375 18.1938L18.7023 17.0114C19.1776 17.359 19.4209 17.5261 19.7542 17.5261C19.9427 17.5261 20.0953 17.4364 20.1525 17.2921C20.2217 17.1172 20.1239 16.9562 19.8906 16.8612C19.8906 16.8612 18.8436 16.5121 18.3596 16.0186C17.9535 15.6046 17.8243 15.0211 17.9536 14.4661C18.0838 13.9072 18.4611 13.4703 18.9965 13.2521V12.6607H20.4613V13.2276C20.8333 13.3309 21.1482 13.4836 21.3293 13.5818L20.6304 14.8692C20.167 14.6177 19.7408 14.5422 19.5749 14.5989C19.4139 14.6539 19.3894 14.7589 19.3802 14.7985C19.3671 14.8545 19.3602 14.9404 19.4497 15.0402C19.5359 15.1362 20.4429 15.5046 20.4429 15.5046C21.4215 15.9029 21.882 16.9034 21.5143 17.8317C21.3232 18.3141 20.9386 18.6795 20.4613 18.8619Z" fill="#888EA2"/>
</g>
<defs>
<clipPath id="clip0_205_41">
<rect width="25" height="25" fill="white"/>
</clipPath>
</defs>
</svg>
