<svg width="24" height="24" viewBox="0 0 24 24" fill="none" xmlns="http://www.w3.org/2000/svg">
<path d="M11.9061 14.625C12.6023 14.625 13.27 14.3484 13.7623 13.8562C14.2546 13.3639 14.5311 12.6962 14.5311 12C14.5311 11.9231 14.5276 11.847 14.5211 11.7717L11.6779 14.6149C11.7531 14.6215 11.829 14.625 11.9061 14.625ZM20.5949 3.88032L19.5936 2.88001C19.5585 2.84487 19.5108 2.82513 19.4611 2.82513C19.4114 2.82513 19.3637 2.84487 19.3286 2.88001L16.7664 5.4429C15.3529 4.72055 13.7641 4.35938 11.9999 4.35938C7.4952 4.35938 4.13427 6.70548 1.91708 11.3977C1.82796 11.5864 1.78174 11.7925 1.78174 12.0012C1.78174 12.2099 1.82796 12.416 1.91708 12.6047C2.80302 14.4708 3.86981 15.9665 5.11747 17.0918L2.63802 19.5703C2.60288 19.6055 2.58314 19.6532 2.58314 19.7029C2.58314 19.7526 2.60288 19.8002 2.63802 19.8354L3.63856 20.8359C3.67372 20.8711 3.7214 20.8908 3.7711 20.8908C3.82081 20.8908 3.86848 20.8711 3.90364 20.8359L20.5949 4.14563C20.6123 4.12822 20.6262 4.10754 20.6356 4.08478C20.645 4.06202 20.6499 4.03762 20.6499 4.01298C20.6499 3.98834 20.645 3.96394 20.6356 3.94118C20.6262 3.91841 20.6123 3.89773 20.5949 3.88032ZM7.78114 12C7.78108 11.2875 7.96556 10.5872 8.31661 9.96717C8.66767 9.34717 9.17333 8.82867 9.78433 8.46218C10.3953 8.0957 11.0908 7.89372 11.8031 7.87592C12.5154 7.85812 13.2201 8.02512 13.8486 8.36063L12.7091 9.50016C12.2495 9.35301 11.7583 9.33529 11.2894 9.44894C10.8204 9.56259 10.3918 9.80323 10.0506 10.1444C9.70936 10.4857 9.46873 10.9143 9.35508 11.3832C9.24142 11.8522 9.25915 12.3434 9.4063 12.803L8.26677 13.9425C7.94699 13.345 7.78014 12.6777 7.78114 12Z" fill="#888EA2"/>
<path d="M22.0828 11.3953C21.2578 9.65782 20.2759 8.24102 19.1369 7.14493L15.7587 10.5234C16.0434 11.2679 16.1066 12.0788 15.9404 12.8583C15.7742 13.6378 15.3859 14.3525 14.8223 14.9161C14.2588 15.4797 13.544 15.868 12.7645 16.0342C11.985 16.2003 11.1741 16.1372 10.4297 15.8524L7.56421 18.7179C8.89358 19.3331 10.3722 19.6406 12 19.6406C16.5047 19.6406 19.8656 17.2945 22.0828 12.6024C22.1719 12.4136 22.2182 12.2075 22.2182 11.9988C22.2182 11.7901 22.1719 11.584 22.0828 11.3953Z" fill="#888EA2"/>
</svg>
