<svg width="232" height="157" viewBox="0 0 232 157" fill="none" xmlns="http://www.w3.org/2000/svg">
<rect x="0.205497" y="156.384" width="231.589" height="0.410994" stroke="#F3F3F5" stroke-width="0.410995" stroke-dasharray="4 4"/>
<rect x="0.205497" y="118.572" width="231.589" height="0.410994" stroke="#F3F3F5" stroke-width="0.410995" stroke-dasharray="4 4"/>
<rect x="0.205497" y="79.1165" width="231.589" height="0.410994" stroke="#F3F3F5" stroke-width="0.410995" stroke-dasharray="4 4"/>
<rect x="0.205497" y="39.6609" width="231.589" height="0.410994" stroke="#F3F3F5" stroke-width="0.410995" stroke-dasharray="4 4"/>
<rect x="0.205497" y="0.205497" width="231.589" height="0.410994" stroke="#F3F3F5" stroke-width="0.410995" stroke-dasharray="4 4"/>
<path d="M3 113C6.58131 107.613 9.06067 103.054 16.7743 103.054C24.4878 103.054 26.9672 77.7754 37.9866 75.7033C49.006 73.6313 52.8628 110.928 63.8822 110.099C74.9017 109.27 73.2487 57.055 84.5436 51.6677C95.8385 46.2805 100.246 28.8754 111.266 28.0466C122.285 27.2178 124.764 75.7033 135.508 75.7033C146.252 75.7033 149.283 44.2084 158.925 44.2084C168.567 44.2084 173.801 62.0279 185.371 62.4423C196.942 62.4423 197.217 97.2525 207.686 97.2525C218.154 97.2525 222.562 20.5873 230 21.0017" stroke="#314CA3" stroke-width="3" stroke-linecap="round" stroke-linejoin="round"/>
</svg>
