<svg width="45" height="45" viewBox="0 0 45 45" fill="none" xmlns="http://www.w3.org/2000/svg">
<rect width="45" height="45" rx="12" fill="#F4F4F6"/>
<path d="M22.044 33L24.854 17.1967C27.5324 17.1967 28.3772 17.4904 28.4992 18.6892C28.4992 18.6892 30.2959 18.0192 31.2021 16.6586C27.6659 15.02 24.1127 14.9461 24.1127 14.9461L22.0394 17.4714L22.044 17.471L19.9707 14.9457C19.9707 14.9457 16.4175 15.0197 12.8817 16.6583C13.7871 18.0189 15.5845 18.6889 15.5845 18.6889C15.7072 17.49 16.551 17.1963 19.2114 17.1944L22.044 33Z" fill="#314CA3"/>
<path d="M22.0429 14.2166C24.9014 14.1948 28.1734 14.6588 31.5229 16.1187C31.9706 15.3129 32.0857 14.9568 32.0857 14.9568C28.4242 13.5082 24.9952 13.0124 22.0425 13C19.0898 13.0124 15.661 13.5083 12 14.9568C12 14.9568 12.1633 15.3955 12.5624 16.1187C15.9113 14.6588 19.1838 14.1948 22.0425 14.2166H22.0429Z" fill="#314CA3"/>
</svg>
