<svg width="20" height="20" viewBox="0 0 20 20" fill="none" xmlns="http://www.w3.org/2000/svg">
<path d="M17.3127 17.275L16.2465 5.56875C16.2177 5.24625 15.9477 5 15.624 5H13.749V3.75C13.749 2.745 13.359 1.8025 12.6527 1.09625C11.9577 0.4 10.9902 0 9.99896 0C7.93146 0 6.24896 1.6825 6.24896 3.75V5H4.37396C4.05021 5 3.78021 5.24625 3.75146 5.56875L2.68771 17.2738C2.62396 17.9725 2.85896 18.6688 3.33146 19.1863C3.80396 19.7038 4.47646 20 5.17771 20H14.8215C15.5215 20 16.194 19.7038 16.6665 19.1875C17.1402 18.67 17.374 17.9725 17.3127 17.275ZM12.499 5H7.49896V3.75C7.49896 2.37125 8.62021 1.25 9.99896 1.25C10.6615 1.25 11.3065 1.515 11.769 1.97875C12.2402 2.45 12.499 3.07875 12.499 3.75V5Z" fill="#314CA3"/>
</svg>
