<svg width="20" height="20" viewBox="0 0 20 20" fill="none" xmlns="http://www.w3.org/2000/svg">
<g clip-path="url(#clip0_12_132)">
<path d="M18.6544 9.5769H17.4649C17.1941 8.8194 16.7577 8.14119 16.1993 7.58678L18.0338 6.77693C18.2959 6.66123 18.4394 6.37208 18.3649 6.09552C18.1436 5.27454 17.3969 4.67059 16.5097 4.67059H14.9966C14.1266 4.67059 13.3919 5.25173 13.1552 6.04865H11.5571C10.957 8.26572 8.92958 9.90147 6.52739 9.90147C5.06101 9.90147 3.73441 9.29182 2.78671 8.31272C2.51979 8.69354 2.30116 9.11096 2.14003 9.55616C1.66139 9.45143 1.26783 9.07284 1.15779 8.57979C1.08733 8.26393 0.773926 8.06482 0.4583 8.13557C0.142478 8.20608 -0.0564285 8.51924 0.0140795 8.83506C0.133924 9.37206 0.435526 9.85964 0.863302 10.2079C1.15608 10.4462 1.50034 10.6121 1.8651 10.6954C1.8367 10.9187 1.82202 11.1463 1.82202 11.3774V11.9455C1.82202 14.0988 3.09335 15.9535 4.92293 16.794V18.0853C4.92293 18.788 5.49266 19.3578 6.19543 19.3578C6.89821 19.3578 7.46794 18.788 7.46794 18.0853V17.2742H12.2348V18.0853C12.2348 18.788 12.8046 19.3578 13.5073 19.3578C14.2101 19.3578 14.7798 18.788 14.7798 18.0853V16.7444C16.1176 16.0936 17.142 14.895 17.5643 13.4385H18.6543C19.3975 13.4385 19.9999 12.8332 19.9999 12.0865V10.9288C20 10.1822 19.3976 9.5769 18.6544 9.5769ZM14.3308 9.91518C14.0084 9.91518 13.747 9.65382 13.747 9.33135C13.747 9.00889 14.0084 8.74752 14.3308 8.74752C14.6533 8.74752 14.9146 9.00889 14.9146 9.33135C14.9146 9.65382 14.6533 9.91518 14.3308 9.91518Z" fill="#314CA3"/>
<path d="M6.52762 0.642303C4.30062 0.642303 2.48889 2.4563 2.48889 4.68595C2.48889 6.91565 4.30066 8.72964 6.52762 8.72964C8.75458 8.72964 10.5663 6.91565 10.5663 4.68595C10.5663 2.45622 8.75451 0.642303 6.52762 0.642303ZM6.15258 4.0681H6.90266C7.74876 4.0681 8.43708 4.75693 8.43708 5.60361C8.43708 6.37862 7.86017 7.021 7.11356 7.1242V7.34428C7.11356 7.66788 6.85122 7.93022 6.52762 7.93022C6.20403 7.93022 5.94168 7.66788 5.94168 7.34428V7.13905H5.79219C5.14484 7.13905 4.61812 6.61209 4.61812 5.96436C4.61812 5.64076 4.88047 5.37842 5.20406 5.37842C5.52766 5.37842 5.79 5.64076 5.79 5.96436L6.90262 5.96717C7.10254 5.96717 7.26516 5.80404 7.26516 5.60357C7.26516 5.4031 7.10254 5.23998 6.90262 5.23998H6.15254C5.30644 5.23998 4.61812 4.55119 4.61812 3.7045C4.61812 2.92946 5.19504 2.28708 5.94168 2.18387V2.02766C5.94168 1.70407 6.20403 1.44172 6.52762 1.44172C6.85122 1.44172 7.11356 1.70407 7.11356 2.02766V2.16899H7.26301C7.91036 2.16899 8.43708 2.69598 8.43708 3.34372C8.43708 3.66732 8.17474 3.92966 7.85114 3.92966C7.52755 3.92966 7.2652 3.66732 7.2652 3.34372C7.2652 3.34278 7.26512 3.34239 7.26512 3.34239L6.15258 3.34087C5.95266 3.34087 5.79004 3.50399 5.79004 3.7045C5.79004 3.90497 5.95266 4.0681 6.15258 4.0681Z" fill="#314CA3"/>
</g>
<defs>
<clipPath id="clip0_12_132">
<rect width="20" height="20" fill="white"/>
</clipPath>
</defs>
</svg>
