<svg width="20" height="20" viewBox="0 0 20 20" fill="none" xmlns="http://www.w3.org/2000/svg">
<path d="M16.4249 5.98748C16.415 4.89442 15.9743 3.8494 15.1985 3.07939C14.4226 2.30938 13.3743 1.87658 12.2812 1.87498H6.24992C6.10012 1.87305 5.9546 1.925 5.83988 2.02136C5.72517 2.11772 5.64888 2.25208 5.62492 2.39998L3.48742 15.8062C3.47407 15.895 3.47999 15.9856 3.5048 16.0719C3.52961 16.1582 3.57271 16.2381 3.63117 16.3062C3.68926 16.376 3.76184 16.4322 3.84387 16.4711C3.9259 16.5099 4.01541 16.5305 4.10617 16.5312H6.68742L6.54992 17.4C6.53532 17.49 6.5406 17.5822 6.5654 17.6699C6.59021 17.7577 6.63392 17.839 6.69348 17.9081C6.75304 17.9772 6.827 18.0324 6.91018 18.0699C6.99335 18.1073 7.08371 18.1262 7.17492 18.125H10.0812C10.2301 18.1271 10.3748 18.0761 10.4894 17.981C10.604 17.8859 10.6809 17.753 10.7062 17.6062L11.3312 13.7875H13.2999C14.5322 13.7825 15.7123 13.29 16.5825 12.4175C17.4526 11.545 17.942 10.3635 17.9437 9.13123V8.95623C17.943 8.37659 17.8051 7.80535 17.5411 7.28932C17.2771 6.77329 16.8946 6.32716 16.4249 5.98748ZM6.78117 3.12498H12.2812C12.9369 3.12699 13.5726 3.35117 14.0845 3.76093C14.5964 4.1707 14.9544 4.74186 15.0999 5.38123C14.8295 5.31781 14.5526 5.28635 14.2749 5.28748H9.06242C8.91262 5.28555 8.7671 5.3375 8.65238 5.43386C8.53767 5.53022 8.46138 5.66458 8.43742 5.81248L8.06867 8.12498C8.04215 8.29074 8.08256 8.46024 8.18102 8.59621C8.27948 8.73217 8.42791 8.82345 8.59367 8.84998C8.75943 8.8765 8.92894 8.83608 9.0649 8.73763C9.20087 8.63917 9.29215 8.49074 9.31867 8.32498L9.60617 6.52498H14.2874C14.587 6.52655 14.8837 6.58377 15.1624 6.69373C15.0436 7.67213 14.5716 8.57346 13.835 9.22833C13.0984 9.88319 12.148 10.2465 11.1624 10.25H8.26242C8.11353 10.2478 7.96875 10.2989 7.85417 10.394C7.73958 10.4891 7.66272 10.622 7.63742 10.7687L6.87492 15.2812H4.83742L6.78117 3.12498ZM16.6937 9.13123C16.692 10.032 16.3344 10.8955 15.6986 11.5336C15.0629 12.1717 14.2006 12.5325 13.2999 12.5375H10.7999C10.651 12.5353 10.5063 12.5864 10.3917 12.6815C10.2771 12.7766 10.2002 12.9095 10.1749 13.0562L9.54992 16.875H7.89992L8.03742 16.0062L8.78742 11.5125H11.1499C12.3167 11.509 13.4496 11.1198 14.3721 10.4053C15.2945 9.69085 15.9548 8.69132 16.2499 7.56248C16.54 7.96919 16.6952 8.45666 16.6937 8.95623V9.13123Z" fill="#314CA3"/>
</svg>
