<svg width="32" height="32" viewBox="0 0 32 32" fill="none" xmlns="http://www.w3.org/2000/svg">
<path fill-rule="evenodd" clip-rule="evenodd" d="M10.233 20.751C10.7703 21.4679 11.4272 22.0482 12.2036 22.4919C13.2843 23.1094 14.5413 23.4181 15.9748 23.4181C17.7391 23.4181 19.1836 22.955 20.3083 22.0288C21.433 21.0805 22.1718 19.7683 22.5247 18.0922H14.5854V14.5526H27.0898V18.5884C26.781 20.1983 26.1194 21.6869 25.1049 23.0542C24.0905 24.4216 22.7783 25.5242 21.1684 26.3623C19.5805 27.1783 17.7942 27.5862 15.8094 27.5862C13.582 27.5862 11.5641 27.09 9.75569 26.0976C9.04954 25.6966 8.40197 25.2353 7.81299 24.7136L10.233 20.751Z" fill="#4285F4"/>
<path fill-rule="evenodd" clip-rule="evenodd" d="M10.8259 10.2115C11.2143 9.81643 11.6515 9.47712 12.1376 9.1936C13.1961 8.57611 14.4091 8.26736 15.7764 8.26736C17.0114 8.26736 18.092 8.52097 19.0182 9.0282C19.9445 9.53543 20.6723 10.2742 21.2015 11.2446H26.5275C25.7997 8.95102 24.4765 7.17571 22.5578 5.91866C20.6392 4.63955 18.3787 4 15.7764 4C13.571 4 11.5642 4.50723 9.75577 5.52169C9.1748 5.84445 8.63349 6.21037 8.13184 6.61943L10.8259 10.2115Z" fill="#E50000"/>
<path fill-rule="evenodd" clip-rule="evenodd" d="M10.0298 20.4646C9.89727 20.2676 9.7729 20.0612 9.65673 19.8455C9.06128 18.6987 8.76356 17.3534 8.76356 15.8097C8.76356 14.31 9.06128 12.9868 9.65673 11.84C10.2325 10.7312 11.0247 9.86973 12.0335 9.25573L10.3647 5.203C10.1594 5.303 9.95645 5.40923 9.75597 5.52169C7.96963 6.5141 6.55821 7.9145 5.52169 9.72289C4.50723 11.5092 4 13.5381 4 15.8097C4 18.0812 4.50723 20.1101 5.52169 21.8964C5.64625 22.1111 5.77623 22.3202 5.91162 22.5237L10.0298 20.4646Z" fill="#FBBC05"/>
<path fill-rule="evenodd" clip-rule="evenodd" d="M22.8568 25.3061C22.3362 25.6955 21.7735 26.0475 21.1689 26.3623C19.5811 27.1782 17.7947 27.5862 15.8099 27.5862C13.5825 27.5862 11.5646 27.09 9.75622 26.0976C7.96989 25.0832 6.55846 23.6828 5.52195 21.8964C5.00265 20.982 4.61626 20.004 4.36279 18.9625L8.76391 15.8558C8.76979 17.3802 9.06748 18.7101 9.65698 19.8454C10.2745 20.9922 11.1235 21.8744 12.2042 22.4919C13.2848 23.1094 14.5418 23.4181 15.9753 23.4181C17.5287 23.4181 18.8342 23.0591 19.8918 22.3411L22.8568 25.3061Z" fill="#34A853"/>
</svg>
