<svg width="20" height="20" viewBox="0 0 20 20" fill="none" xmlns="http://www.w3.org/2000/svg">
<g clip-path="url(#clip0_14_1140)">
<path d="M19.8174 3.93341L16.0675 0.183524C15.8888 0.00477936 15.6201 -0.048969 15.3863 0.048528C15.1526 0.146025 15.0001 0.372268 15.0001 0.62476V2.4997H6.87533C3.07795 2.4997 0.000549316 5.5771 0.000549316 9.37449C0.000549316 9.71947 0.28054 9.99946 0.62553 9.99946H3.12545C3.47044 9.99946 3.75043 9.71947 3.75043 9.37449C3.75043 7.64829 5.14914 6.24958 6.87533 6.24958H15.0001V8.12452C15.0001 8.37702 15.1526 8.60576 15.3863 8.70201C15.6201 8.7995 15.8888 8.74575 16.0675 8.56701L19.8174 4.81713C20.0612 4.57339 20.0612 4.17715 19.8174 3.93341Z" fill="#314CA3"/>
<path d="M19.3747 9.99945H16.8748C16.5298 9.99945 16.2498 10.2794 16.2498 10.6244C16.2498 12.3506 14.8511 13.7493 13.1249 13.7493H5.00016V11.8744C5.00016 11.6219 4.84766 11.3932 4.61392 11.2969C4.38018 11.2007 4.11268 11.2544 3.93269 11.4332L0.182807 15.1831C-0.0609356 15.4268 -0.0609356 15.823 0.182807 16.0668L3.93269 19.8167C4.11143 19.9954 4.38018 20.0492 4.61392 19.9517C4.84766 19.8542 5.00016 19.6267 5.00016 19.3742V17.4992H13.1249C16.9223 17.4992 19.9997 14.4218 19.9997 10.6244C19.9997 10.2794 19.7197 9.99945 19.3747 9.99945Z" fill="#314CA3"/>
</g>
<defs>
<clipPath id="clip0_14_1140">
<rect width="20" height="20" fill="white"/>
</clipPath>
</defs>
</svg>
