<svg width="20" height="20" viewBox="0 0 20 20" fill="none" xmlns="http://www.w3.org/2000/svg">
<g clip-path="url(#clip0_17_1268)">
<path d="M18.3333 4.16668H14.1667V3.33332C14.1667 2.41414 13.4192 1.66664 12.5 1.66664H7.5C6.58082 1.66664 5.83332 2.4141 5.83332 3.33332V4.16664H1.66668C0.747461 4.16668 0 4.91415 0 5.83333V8.33333C0 9.25255 0.747461 10 1.66668 10H8.33336V9.58333C8.33336 9.35302 8.51973 9.16665 8.75004 9.16665H11.25C11.4804 9.16665 11.6667 9.35302 11.6667 9.58333V10H18.3334C19.2525 10 20 9.25255 20 8.33333V5.83333C20 4.91415 19.2525 4.16668 18.3333 4.16668ZM12.5 4.16668H7.5V3.33332H12.5V4.16668Z" fill="#314CA3"/>
<path d="M19.7689 10.4496C19.6269 10.3792 19.4572 10.3955 19.3318 10.4907C19.0356 10.7149 18.6905 10.8333 18.3333 10.8333H11.6667V12.0833C11.6667 12.3137 11.4803 12.5 11.25 12.5H8.75C8.51969 12.5 8.33332 12.3137 8.33332 12.0833V10.8333H1.66668C1.30941 10.8333 0.964375 10.7149 0.668125 10.4907C0.542383 10.3947 0.373125 10.3784 0.231094 10.4496C0.0895312 10.5201 0 10.6645 0 10.8228V16.6667C0 17.5859 0.747461 18.3334 1.66668 18.3334H18.3334C19.2525 18.3334 20 17.5859 20 16.6667V10.8228C20 10.6645 19.9105 10.5201 19.7689 10.4496Z" fill="#314CA3"/>
</g>
<defs>
<clipPath id="clip0_17_1268">
<rect width="20" height="20" fill="white"/>
</clipPath>
</defs>
</svg>
